# xmcd
#
# Track frame offsets:
#	150
#	13899
#	33744
#	46849
#	66122
#	83663
#	104304
#	117757
#	135162
#	146991
#
# Disc length: 2231 seconds
#
# Revision: 0
# Processed by: cddbd v1.5.2PL0 Copyright (c) Steve Scherf et al.
# Submitted via: EasyCDDAExtractor 10.2.0.1
#
DISCID=8308b50a
DTITLE=The Guiggeys Plus - When I Cross Over
DYEAR=2007
DGENRE=Gospel
TTITLE0=My Savior Called My Name
TTITLE1=He'll Carry You
TTITLE2=Deep In The World
TTITLE3=I Plan To Make Heaven My Home
TTITLE4=Lean On Me
TTITLE5=When I Cross Over
TTITLE6=Hand And Hand With Jesus
TTITLE7=Lead Me Through
TTITLE8=I Trust In Jesus
TTITLE9=Then Jesus Wept
EXTD=
EXTT0=
EXTT1=
EXTT2=
EXTT3=
EXTT4=
EXTT5=
EXTT6=
EXTT7=
EXTT8=
EXTT9=
PLAYORDER=
